<svg xmlns="http://www.w3.org/2000/svg" xmlns:xlink="http://www.w3.org/1999/xlink" width="500" zoomAndPan="magnify" viewBox="0 0 375 374.999991" height="500" preserveAspectRatio="xMidYMid meet" version="1.0"><defs><g/><clipPath id="37b4581417"><path d="M 78.066406 158 L 180 158 L 180 230.8125 L 78.066406 230.8125 Z M 78.066406 158 " clip-rule="nonzero"/></clipPath><clipPath id="1e38299b74"><path d="M 88 163 L 179 163 L 179 230.8125 L 88 230.8125 Z M 88 163 " clip-rule="nonzero"/></clipPath><clipPath id="e647c5e19f"><path d="M 165 144.5625 L 228 144.5625 L 228 167 L 165 167 Z M 165 144.5625 " clip-rule="nonzero"/></clipPath></defs><g clip-path="url(#37b4581417)"><path fill="#2986e2" d="M 88.78125 205.199219 C 86.195312 208.441406 84.140625 214.273438 85.785156 219.078125 C 86.8125 222.074219 89.398438 224.167969 92.804688 225.648438 C 95.597656 227.742188 99.828125 229.507812 105.988281 230.203125 C 86.113281 229.875 79.542969 222.074219 78.886719 216.53125 C 78.066406 209.425781 81.964844 202.570312 88.742188 196.164062 C 102.90625 182.820312 129.761719 171.527344 153.003906 164.585938 C 162.980469 161.589844 172.34375 159.414062 179.695312 158.179688 C 170.125 161.136719 161.378906 164.136719 153.371094 167.175781 C 117.074219 181.011719 96.789062 195.136719 88.78125 205.199219 Z M 88.78125 205.199219 " fill-opacity="1" fill-rule="nonzero"/></g><g clip-path="url(#1e38299b74)"><path fill="#f4743c" d="M 97.035156 208.320312 C 94.777344 211.316406 93.09375 216.695312 94.652344 220.964844 C 96.542969 226.015625 103.480469 228.152344 110.914062 228.890625 C 119.457031 229.21875 126.886719 228.398438 126.886719 228.398438 C 125.082031 228.726562 123.316406 228.972656 121.589844 229.21875 C 115.675781 230 110.503906 230.328125 106.027344 230.246094 C 99.828125 229.546875 95.597656 227.78125 92.847656 225.6875 C 90.015625 223.550781 88.699219 221.046875 88.371094 218.871094 C 87.46875 212.464844 90.792969 206.140625 96.789062 200.148438 C 109.3125 187.664062 133.417969 176.742188 154.316406 169.84375 C 163.308594 166.84375 171.726562 164.628906 178.339844 163.355469 C 169.714844 166.269531 161.871094 169.226562 154.6875 172.183594 C 122.042969 185.609375 104.015625 198.957031 97.035156 208.320312 Z M 97.035156 208.320312 " fill-opacity="1" fill-rule="nonzero"/></g><g clip-path="url(#e647c5e19f)"><path fill="#2986e2" d="M 227.734375 148.65625 C 226.957031 147.957031 225.230469 146.847656 221.78125 146.519531 C 219.566406 146.316406 217.347656 146.5625 215.210938 147.136719 L 200.839844 151.035156 L 175.09375 144.671875 L 167.992188 146.847656 L 187.496094 154.816406 L 176.328125 158.839844 L 170.25 156.828125 L 166.964844 157.648438 L 171.070312 161.015625 C 171.070312 161.015625 163.800781 163.929688 165.238281 166.066406 C 166.964844 168.570312 220.46875 151.777344 227.570312 149.558594 C 227.941406 149.394531 228.066406 148.902344 227.734375 148.65625 Z M 227.734375 148.65625 " fill-opacity="1" fill-rule="nonzero"/></g><g fill="#402978" fill-opacity="1"><g transform="translate(140.371212, 218.553238)"><g><path d="M 19.078125 -20.203125 L 7.140625 -20.203125 L 7.140625 -13.328125 L 17.953125 -13.328125 L 17.953125 -9.765625 L 7.140625 -9.765625 L 7.140625 0 L 3.125 0 L 3.125 -23.796875 L 19.109375 -23.796875 Z M 19.078125 -20.203125 "/></g></g></g><g fill="#402978" fill-opacity="1"><g transform="translate(159.340764, 218.553238)"><g><path d="M 4.796875 -20.453125 C 7.222656 -22.753906 10.210938 -23.90625 13.765625 -23.90625 C 17.328125 -23.90625 20.320312 -22.753906 22.75 -20.453125 C 25.175781 -18.148438 26.390625 -15.296875 26.390625 -11.890625 C 26.390625 -8.492188 25.175781 -5.632812 22.75 -3.3125 C 20.320312 -0.988281 17.328125 0.171875 13.765625 0.171875 C 10.210938 0.171875 7.222656 -0.988281 4.796875 -3.3125 C 2.367188 -5.632812 1.15625 -8.492188 1.15625 -11.890625 C 1.15625 -15.296875 2.367188 -18.148438 4.796875 -20.453125 Z M 13.796875 -20.296875 C 11.441406 -20.296875 9.425781 -19.484375 7.75 -17.859375 C 6.070312 -16.242188 5.234375 -14.253906 5.234375 -11.890625 C 5.234375 -9.535156 6.078125 -7.535156 7.765625 -5.890625 C 9.453125 -4.253906 11.460938 -3.4375 13.796875 -3.4375 C 16.140625 -3.4375 18.132812 -4.253906 19.78125 -5.890625 C 21.4375 -7.535156 22.265625 -9.535156 22.265625 -11.890625 C 22.265625 -14.253906 21.4375 -16.242188 19.78125 -17.859375 C 18.132812 -19.484375 16.140625 -20.296875 13.796875 -20.296875 Z M 13.796875 -20.296875 "/></g></g></g><g fill="#402978" fill-opacity="1"><g transform="translate(186.299404, 218.553238)"><g><path d="M 13.671875 -23.90625 C 15.347656 -23.90625 16.984375 -23.582031 18.578125 -22.9375 C 20.179688 -22.289062 21.5625 -21.390625 22.71875 -20.234375 L 20.359375 -17.3125 C 19.503906 -18.238281 18.484375 -18.972656 17.296875 -19.515625 C 16.117188 -20.054688 14.929688 -20.328125 13.734375 -20.328125 C 11.359375 -20.328125 9.347656 -19.515625 7.703125 -17.890625 C 6.054688 -16.273438 5.234375 -14.300781 5.234375 -11.96875 C 5.234375 -9.613281 6.054688 -7.625 7.703125 -6 C 9.347656 -4.375 11.359375 -3.5625 13.734375 -3.5625 C 16.203125 -3.5625 18.410156 -4.503906 20.359375 -6.390625 L 22.75 -3.734375 C 21.519531 -2.535156 20.085938 -1.582031 18.453125 -0.875 C 16.828125 -0.175781 15.1875 0.171875 13.53125 0.171875 C 10.039062 0.171875 7.101562 -0.988281 4.71875 -3.3125 C 2.34375 -5.632812 1.15625 -8.507812 1.15625 -11.9375 C 1.15625 -15.3125 2.359375 -18.148438 4.765625 -20.453125 C 7.179688 -22.753906 10.148438 -23.90625 13.671875 -23.90625 Z M 13.671875 -23.90625 "/></g></g></g><g fill="#402978" fill-opacity="1"><g transform="translate(209.41649, 218.553238)"><g><path d="M 23.359375 -23.796875 L 23.359375 -9.859375 C 23.359375 -6.753906 22.4375 -4.304688 20.59375 -2.515625 C 18.757812 -0.722656 16.234375 0.171875 13.015625 0.171875 C 9.796875 0.171875 7.265625 -0.722656 5.421875 -2.515625 C 3.578125 -4.304688 2.65625 -6.753906 2.65625 -9.859375 L 2.65625 -23.796875 L 6.65625 -23.796875 L 6.65625 -9.859375 C 6.65625 -7.867188 7.226562 -6.300781 8.375 -5.15625 C 9.519531 -4.007812 11.082031 -3.4375 13.0625 -3.4375 C 15.007812 -3.4375 16.539062 -4 17.65625 -5.125 C 18.78125 -6.257812 19.34375 -7.835938 19.34375 -9.859375 L 19.34375 -23.796875 Z M 23.359375 -23.796875 "/></g></g></g><g fill="#402978" fill-opacity="1"><g transform="translate(234.811318, 218.553238)"><g><path d="M 10.953125 -23.96875 C 14.035156 -23.96875 16.8125 -23.148438 19.28125 -21.515625 L 17.609375 -17.984375 C 15.179688 -19.460938 12.859375 -20.203125 10.640625 -20.203125 C 9.441406 -20.203125 8.492188 -19.984375 7.796875 -19.546875 C 7.109375 -19.117188 6.765625 -18.507812 6.765625 -17.71875 C 6.765625 -16.925781 7.082031 -16.25 7.71875 -15.6875 C 8.351562 -15.132812 9.144531 -14.726562 10.09375 -14.46875 C 11.050781 -14.207031 12.082031 -13.878906 13.1875 -13.484375 C 14.300781 -13.085938 15.332031 -12.664062 16.28125 -12.21875 C 17.238281 -11.78125 18.023438 -11.085938 18.640625 -10.140625 C 19.265625 -9.203125 19.578125 -8.066406 19.578125 -6.734375 C 19.578125 -4.648438 18.742188 -2.984375 17.078125 -1.734375 C 15.421875 -0.484375 13.265625 0.140625 10.609375 0.140625 C 8.796875 0.140625 7.035156 -0.195312 5.328125 -0.875 C 3.628906 -1.5625 2.148438 -2.484375 0.890625 -3.640625 L 2.625 -7.109375 C 3.820312 -5.992188 5.140625 -5.132812 6.578125 -4.53125 C 8.015625 -3.9375 9.378906 -3.640625 10.671875 -3.640625 C 12.078125 -3.640625 13.171875 -3.894531 13.953125 -4.40625 C 14.734375 -4.914062 15.125 -5.625 15.125 -6.53125 C 15.125 -7.34375 14.804688 -8.023438 14.171875 -8.578125 C 13.535156 -9.140625 12.742188 -9.550781 11.796875 -9.8125 C 10.847656 -10.070312 9.816406 -10.390625 8.703125 -10.765625 C 7.585938 -11.140625 6.554688 -11.535156 5.609375 -11.953125 C 4.660156 -12.367188 3.867188 -13.039062 3.234375 -13.96875 C 2.597656 -14.90625 2.28125 -16.03125 2.28125 -17.34375 C 2.28125 -19.351562 3.070312 -20.957031 4.65625 -22.15625 C 6.238281 -23.363281 8.335938 -23.96875 10.953125 -23.96875 Z M 10.953125 -23.96875 "/></g></g></g><g fill="#402978" fill-opacity="1"><g transform="translate(255.379021, 218.553238)"><g/></g></g><g fill="#402978" fill-opacity="1"><g transform="translate(263.571811, 218.553238)"><g/></g></g><g fill="#402978" fill-opacity="1"><g transform="translate(271.7646, 218.553238)"><g/></g></g><g fill="#402978" fill-opacity="1"><g transform="translate(279.957389, 218.553238)"><g/></g></g><g fill="#402978" fill-opacity="1"><g transform="translate(288.15018, 218.553238)"><g/></g></g><g fill="#402978" fill-opacity="1"><g transform="translate(144.254877, 236.787493)"><g><path d="M 5.984375 -9.796875 L 5.984375 -8.78125 L 3.59375 -8.78125 L 3.59375 0 L 2.5 0 L 2.5 -8.78125 L 0.125 -8.78125 L 0.125 -9.796875 Z M 5.984375 -9.796875 "/></g></g></g><g fill="#402978" fill-opacity="1"><g transform="translate(150.363001, 236.787493)"><g><path d="M 0.5 -4.890625 C 0.5 -5.785156 0.722656 -6.625 1.171875 -7.40625 C 1.628906 -8.1875 2.25 -8.804688 3.03125 -9.265625 C 3.820312 -9.734375 4.679688 -9.96875 5.609375 -9.96875 C 6.515625 -9.96875 7.359375 -9.742188 8.140625 -9.296875 C 8.929688 -8.847656 9.554688 -8.226562 10.015625 -7.4375 C 10.484375 -6.644531 10.71875 -5.796875 10.71875 -4.890625 C 10.71875 -3.984375 10.488281 -3.140625 10.03125 -2.359375 C 9.570312 -1.585938 8.953125 -0.972656 8.171875 -0.515625 C 7.390625 -0.0546875 6.535156 0.171875 5.609375 0.171875 C 4.691406 0.171875 3.835938 -0.0507812 3.046875 -0.5 C 2.265625 -0.957031 1.644531 -1.578125 1.1875 -2.359375 C 0.726562 -3.140625 0.5 -3.984375 0.5 -4.890625 Z M 5.59375 -8.953125 C 4.863281 -8.953125 4.191406 -8.765625 3.578125 -8.390625 C 2.960938 -8.023438 2.476562 -7.53125 2.125 -6.90625 C 1.769531 -6.289062 1.59375 -5.625 1.59375 -4.90625 C 1.59375 -4.1875 1.769531 -3.515625 2.125 -2.890625 C 2.488281 -2.265625 2.976562 -1.765625 3.59375 -1.390625 C 4.21875 -1.023438 4.890625 -0.84375 5.609375 -0.84375 C 6.328125 -0.84375 7 -1.03125 7.625 -1.40625 C 8.25 -1.78125 8.738281 -2.273438 9.09375 -2.890625 C 9.445312 -3.515625 9.625 -4.1875 9.625 -4.90625 C 9.625 -5.632812 9.441406 -6.3125 9.078125 -6.9375 C 8.722656 -7.5625 8.234375 -8.050781 7.609375 -8.40625 C 6.992188 -8.769531 6.320312 -8.953125 5.59375 -8.953125 Z M 5.59375 -8.953125 "/></g></g></g><g fill="#402978" fill-opacity="1"><g transform="translate(161.565564, 236.787493)"><g><path d="M 2.046875 -9.796875 L 2.046875 -3.75 C 2.046875 -2.9375 2.132812 -2.359375 2.3125 -2.015625 C 2.5 -1.671875 2.796875 -1.390625 3.203125 -1.171875 C 3.609375 -0.953125 4.023438 -0.84375 4.453125 -0.84375 C 4.859375 -0.84375 5.242188 -0.929688 5.609375 -1.109375 C 5.972656 -1.296875 6.238281 -1.5 6.40625 -1.71875 C 6.570312 -1.9375 6.6875 -2.1875 6.75 -2.46875 C 6.820312 -2.757812 6.859375 -3.195312 6.859375 -3.78125 L 6.859375 -9.796875 L 7.953125 -9.796875 L 7.953125 -3.546875 C 7.953125 -2.910156 7.882812 -2.394531 7.75 -2 C 7.613281 -1.601562 7.375 -1.234375 7.03125 -0.890625 C 6.695312 -0.546875 6.304688 -0.28125 5.859375 -0.09375 C 5.421875 0.0820312 4.953125 0.171875 4.453125 0.171875 C 3.835938 0.171875 3.257812 0.0234375 2.71875 -0.265625 C 2.175781 -0.554688 1.75 -0.941406 1.4375 -1.421875 C 1.125 -1.910156 0.96875 -2.628906 0.96875 -3.578125 L 0.96875 -9.796875 Z M 2.046875 -9.796875 "/></g></g></g><g fill="#402978" fill-opacity="1"><g transform="translate(170.467831, 236.787493)"><g><path d="M 2.484375 -9.796875 C 4.828125 -9.796875 6 -8.894531 6 -7.09375 C 6 -6.34375 5.78125 -5.722656 5.34375 -5.234375 C 4.90625 -4.742188 4.300781 -4.460938 3.53125 -4.390625 L 6.65625 0 L 5.3125 0 L 2.359375 -4.296875 L 2.078125 -4.296875 L 2.078125 0 L 0.984375 0 L 0.984375 -9.796875 Z M 2.078125 -5.265625 L 2.5625 -5.265625 C 3.332031 -5.265625 3.914062 -5.40625 4.3125 -5.6875 C 4.707031 -5.976562 4.90625 -6.421875 4.90625 -7.015625 C 4.90625 -7.671875 4.710938 -8.128906 4.328125 -8.390625 C 3.941406 -8.648438 3.382812 -8.78125 2.65625 -8.78125 L 2.078125 -8.78125 Z M 2.078125 -5.265625 "/></g></g></g><g fill="#402978" fill-opacity="1"><g transform="translate(177.511669, 236.787493)"><g/></g></g><g fill="#402978" fill-opacity="1"><g transform="translate(181.514446, 236.787493)"><g><path d="M 4.546875 -5.609375 L 6.609375 -2.96875 L 7.71875 -4.25 L 8.515625 -3.59375 L 7.265625 -2.140625 L 8.9375 0 L 7.546875 0 L 6.5 -1.375 C 5.90625 -0.832031 5.351562 -0.4375 4.84375 -0.1875 C 4.332031 0.0507812 3.835938 0.171875 3.359375 0.171875 C 2.847656 0.171875 2.375 0.0546875 1.9375 -0.171875 C 1.507812 -0.410156 1.160156 -0.738281 0.890625 -1.15625 C 0.628906 -1.570312 0.5 -2.039062 0.5 -2.5625 C 0.5 -2.988281 0.585938 -3.375 0.765625 -3.71875 C 0.953125 -4.0625 1.191406 -4.378906 1.484375 -4.671875 C 1.785156 -4.960938 2.300781 -5.34375 3.03125 -5.8125 C 2.738281 -6.195312 2.5 -6.550781 2.3125 -6.875 C 2.132812 -7.195312 2.046875 -7.535156 2.046875 -7.890625 C 2.046875 -8.484375 2.25 -8.976562 2.65625 -9.375 C 3.070312 -9.769531 3.585938 -9.96875 4.203125 -9.96875 C 4.773438 -9.96875 5.265625 -9.78125 5.671875 -9.40625 C 6.078125 -9.039062 6.28125 -8.585938 6.28125 -8.046875 C 6.28125 -7.578125 6.140625 -7.15625 5.859375 -6.78125 C 5.585938 -6.414062 5.148438 -6.023438 4.546875 -5.609375 Z M 3.921875 -6.390625 L 4.375 -6.734375 C 4.726562 -6.992188 4.957031 -7.222656 5.0625 -7.421875 C 5.175781 -7.617188 5.234375 -7.828125 5.234375 -8.046875 C 5.234375 -8.328125 5.128906 -8.5625 4.921875 -8.75 C 4.710938 -8.945312 4.457031 -9.046875 4.15625 -9.046875 C 3.875 -9.046875 3.625 -8.941406 3.40625 -8.734375 C 3.195312 -8.523438 3.09375 -8.269531 3.09375 -7.96875 C 3.09375 -7.6875 3.207031 -7.382812 3.4375 -7.0625 Z M 5.84375 -2.203125 L 3.671875 -5 C 3.335938 -4.789062 3.015625 -4.570312 2.703125 -4.34375 C 2.398438 -4.125 2.132812 -3.867188 1.90625 -3.578125 C 1.6875 -3.285156 1.578125 -2.957031 1.578125 -2.59375 C 1.578125 -2.125 1.75 -1.707031 2.09375 -1.34375 C 2.445312 -0.988281 2.847656 -0.8125 3.296875 -0.8125 C 3.671875 -0.8125 4.050781 -0.914062 4.4375 -1.125 C 4.832031 -1.34375 5.300781 -1.703125 5.84375 -2.203125 Z M 5.84375 -2.203125 "/></g></g></g><g fill="#402978" fill-opacity="1"><g transform="translate(190.546683, 236.787493)"><g/></g></g><g fill="#402978" fill-opacity="1"><g transform="translate(194.54946, 236.787493)"><g><path d="M 5.984375 -9.796875 L 5.984375 -8.78125 L 3.59375 -8.78125 L 3.59375 0 L 2.5 0 L 2.5 -8.78125 L 0.125 -8.78125 L 0.125 -9.796875 Z M 5.984375 -9.796875 "/></g></g></g><g fill="#402978" fill-opacity="1"><g transform="translate(200.657583, 236.787493)"><g><path d="M 2.484375 -9.796875 C 4.828125 -9.796875 6 -8.894531 6 -7.09375 C 6 -6.34375 5.78125 -5.722656 5.34375 -5.234375 C 4.90625 -4.742188 4.300781 -4.460938 3.53125 -4.390625 L 6.65625 0 L 5.3125 0 L 2.359375 -4.296875 L 2.078125 -4.296875 L 2.078125 0 L 0.984375 0 L 0.984375 -9.796875 Z M 2.078125 -5.265625 L 2.5625 -5.265625 C 3.332031 -5.265625 3.914062 -5.40625 4.3125 -5.6875 C 4.707031 -5.976562 4.90625 -6.421875 4.90625 -7.015625 C 4.90625 -7.671875 4.710938 -8.128906 4.328125 -8.390625 C 3.941406 -8.648438 3.382812 -8.78125 2.65625 -8.78125 L 2.078125 -8.78125 Z M 2.078125 -5.265625 "/></g></g></g><g fill="#402978" fill-opacity="1"><g transform="translate(207.701421, 236.787493)"><g><path d="M 4.609375 -10.265625 L 9.015625 0 L 7.796875 0 L 6.640625 -2.78125 L 2.453125 -2.78125 L 1.28125 0 L 0.078125 0 Z M 2.90625 -3.796875 L 6.21875 -3.796875 L 4.578125 -7.71875 Z M 1.765625 -9.796875 Z M 1.765625 -9.796875 "/></g></g></g><g fill="#402978" fill-opacity="1"><g transform="translate(216.785638, 236.787493)"><g><path d="M 1.265625 -9.796875 L 4.0625 -2.328125 L 6.84375 -9.796875 L 8.03125 -9.796875 L 4.0625 0.578125 L 0.078125 -9.796875 Z M 1.359375 0 Z M 1.359375 0 "/></g></g></g><g fill="#402978" fill-opacity="1"><g transform="translate(224.89515, 236.787493)"><g><path d="M 6.078125 -9.796875 L 6.078125 -8.78125 L 2.078125 -8.78125 L 2.078125 -5.875 L 5.953125 -5.875 L 5.953125 -4.859375 L 2.078125 -4.859375 L 2.078125 -1.015625 L 6.078125 -1.015625 L 6.078125 0 L 0.984375 0 L 0.984375 -9.796875 Z M 6.078125 -9.796875 "/></g></g></g><g fill="#402978" fill-opacity="1"><g transform="translate(231.835018, 236.787493)"><g><path d="M 2.078125 -9.796875 L 2.078125 -1.015625 L 4.78125 -1.015625 L 4.78125 0 L 0.984375 0 L 0.984375 -9.796875 Z M 2.078125 -9.796875 "/></g></g></g><g fill="#402978" fill-opacity="1"><g transform="translate(236.70853, 236.787493)"><g/></g></g><g fill="#402978" fill-opacity="1"><g transform="translate(240.711307, 236.787493)"><g><path d="M 4.609375 -10.265625 L 9.015625 0 L 7.796875 0 L 6.640625 -2.78125 L 2.453125 -2.78125 L 1.28125 0 L 0.078125 0 Z M 2.90625 -3.796875 L 6.21875 -3.796875 L 4.578125 -7.71875 Z M 1.765625 -9.796875 Z M 1.765625 -9.796875 "/></g></g></g><g fill="#402978" fill-opacity="1"><g transform="translate(249.795523, 236.787493)"><g><path d="M 8.875 -7.109375 C 8.457031 -7.703125 7.972656 -8.15625 7.421875 -8.46875 C 6.867188 -8.789062 6.234375 -8.953125 5.515625 -8.953125 C 4.804688 -8.953125 4.140625 -8.765625 3.515625 -8.390625 C 2.898438 -8.023438 2.410156 -7.523438 2.046875 -6.890625 C 1.691406 -6.265625 1.515625 -5.585938 1.515625 -4.859375 C 1.515625 -4.128906 1.707031 -3.453125 2.09375 -2.828125 C 2.476562 -2.203125 2.972656 -1.710938 3.578125 -1.359375 C 4.179688 -1.015625 4.800781 -0.84375 5.4375 -0.84375 C 6.019531 -0.84375 6.582031 -0.976562 7.125 -1.25 C 7.664062 -1.519531 8.101562 -1.890625 8.4375 -2.359375 C 8.769531 -2.828125 8.9375 -3.34375 8.9375 -3.90625 L 6.015625 -3.90625 L 6.015625 -4.921875 L 10.09375 -4.921875 L 10.09375 -4.375 C 10.09375 -3.726562 9.984375 -3.128906 9.765625 -2.578125 C 9.554688 -2.035156 9.222656 -1.554688 8.765625 -1.140625 C 8.316406 -0.722656 7.804688 -0.398438 7.234375 -0.171875 C 6.671875 0.0546875 6.078125 0.171875 5.453125 0.171875 C 4.566406 0.171875 3.734375 -0.0507812 2.953125 -0.5 C 2.171875 -0.957031 1.550781 -1.578125 1.09375 -2.359375 C 0.644531 -3.140625 0.421875 -3.976562 0.421875 -4.875 C 0.421875 -5.78125 0.648438 -6.628906 1.109375 -7.421875 C 1.578125 -8.210938 2.207031 -8.832031 3 -9.28125 C 3.789062 -9.738281 4.632812 -9.96875 5.53125 -9.96875 C 6.382812 -9.96875 7.15625 -9.785156 7.84375 -9.421875 C 8.53125 -9.054688 9.140625 -8.535156 9.671875 -7.859375 Z M 8.875 -7.109375 "/></g></g></g><g fill="#402978" fill-opacity="1"><g transform="translate(260.452261, 236.787493)"><g><path d="M 6.078125 -9.796875 L 6.078125 -8.78125 L 2.078125 -8.78125 L 2.078125 -5.875 L 5.953125 -5.875 L 5.953125 -4.859375 L 2.078125 -4.859375 L 2.078125 -1.015625 L 6.078125 -1.015625 L 6.078125 0 L 0.984375 0 L 0.984375 -9.796875 Z M 6.078125 -9.796875 "/></g></g></g><g fill="#402978" fill-opacity="1"><g transform="translate(267.39213, 236.787493)"><g><path d="M 1.046875 -10.21875 L 8.703125 -2.203125 L 8.703125 -9.796875 L 9.78125 -9.796875 L 9.78125 0.4375 L 2.140625 -7.546875 L 2.140625 0 L 1.046875 0 Z M 1.046875 -10.21875 "/></g></g></g><g fill="#402978" fill-opacity="1"><g transform="translate(278.230805, 236.787493)"><g><path d="M 8.46875 -7.65625 C 8.050781 -8.070312 7.582031 -8.390625 7.0625 -8.609375 C 6.550781 -8.835938 6.019531 -8.953125 5.46875 -8.953125 C 4.78125 -8.953125 4.128906 -8.765625 3.515625 -8.390625 C 2.898438 -8.023438 2.410156 -7.53125 2.046875 -6.90625 C 1.691406 -6.28125 1.515625 -5.613281 1.515625 -4.90625 C 1.515625 -4.207031 1.691406 -3.539062 2.046875 -2.90625 C 2.410156 -2.28125 2.898438 -1.78125 3.515625 -1.40625 C 4.140625 -1.03125 4.800781 -0.84375 5.5 -0.84375 C 6.03125 -0.84375 6.550781 -0.953125 7.0625 -1.171875 C 7.582031 -1.398438 8.050781 -1.722656 8.46875 -2.140625 L 8.46875 -0.796875 C 8.050781 -0.492188 7.585938 -0.253906 7.078125 -0.078125 C 6.566406 0.0859375 6.050781 0.171875 5.53125 0.171875 C 4.664062 0.171875 3.835938 -0.0390625 3.046875 -0.46875 C 2.253906 -0.90625 1.617188 -1.515625 1.140625 -2.296875 C 0.660156 -3.078125 0.421875 -3.929688 0.421875 -4.859375 C 0.421875 -5.773438 0.648438 -6.625 1.109375 -7.40625 C 1.578125 -8.195312 2.207031 -8.820312 3 -9.28125 C 3.789062 -9.738281 4.632812 -9.96875 5.53125 -9.96875 C 6.09375 -9.96875 6.632812 -9.875 7.15625 -9.6875 C 7.6875 -9.507812 8.125 -9.285156 8.46875 -9.015625 Z M 8.46875 -7.65625 "/></g></g></g><g fill="#402978" fill-opacity="1"><g transform="translate(287.54895, 236.787493)"><g><path d="M 1.359375 -9.796875 L 3.859375 -5.4375 L 6.359375 -9.796875 L 7.625 -9.796875 L 4.40625 -4.21875 L 4.40625 0 L 3.3125 0 L 3.3125 -4.21875 L 0.109375 -9.796875 Z M 1.359375 -9.796875 "/></g></g></g></svg>