<svg xmlns="http://www.w3.org/2000/svg" xmlns:xlink="http://www.w3.org/1999/xlink" width="500" zoomAndPan="magnify" viewBox="0 0 375 374.999991" height="500" preserveAspectRatio="xMidYMid meet" version="1.0"><defs><g/><clipPath id="b263e831b1"><path d="M 144 97.359375 L 224 97.359375 L 224 150 L 144 150 Z M 144 97.359375 " clip-rule="nonzero"/></clipPath><clipPath id="8757bc6d8d"><path d="M 185.050781 97.359375 C 162.378906 97.359375 144 115.679688 144 138.285156 C 144 141.5625 144.53125 145.0625 145.46875 148.6875 C 156.421875 150.144531 167.621094 149.714844 178.417969 147.332031 C 194.609375 143.761719 213.148438 135.371094 223.683594 124.429688 C 217.984375 108.640625 202.84375 97.359375 185.050781 97.359375 Z M 156.820312 123.753906 L 156.808594 123.578125 C 156.808594 119.84375 159.847656 116.8125 163.601562 116.8125 C 164.386719 116.8125 165.140625 116.953125 165.84375 117.199219 C 166.570312 115.25 168.445312 113.863281 170.648438 113.863281 C 173.128906 113.863281 175.203125 115.621094 175.679688 117.957031 C 175.796875 117.953125 175.917969 117.941406 176.042969 117.941406 C 179.425781 117.941406 182.214844 120.480469 182.605469 123.753906 Z M 184.425781 133.363281 L 184.421875 133.277344 C 184.421875 131.410156 185.941406 129.894531 187.816406 129.894531 C 188.210938 129.894531 188.585938 129.964844 188.9375 130.085938 C 189.300781 129.113281 190.234375 128.417969 191.339844 128.417969 C 192.582031 128.417969 193.617188 129.300781 193.855469 130.464844 C 193.914062 130.460938 193.972656 130.457031 194.039062 130.457031 C 195.730469 130.457031 197.125 131.722656 197.320312 133.363281 Z M 184.425781 133.363281 " clip-rule="nonzero"/></clipPath><linearGradient x1="166.613473" gradientTransform="matrix(0.333191, 0, 0, 0.332173, 143.998643, 97.357478)" y1="198.552024" x2="44.780442" gradientUnits="userSpaceOnUse" y2="-24.463499" id="db13dcd6d6"><stop stop-opacity="1" stop-color="rgb(5.099487%, 43.499756%, 89.7995%)" offset="0"/><stop stop-opacity="1" stop-color="rgb(5.099487%, 43.499756%, 89.7995%)" offset="0.25"/><stop stop-opacity="1" stop-color="rgb(5.099487%, 43.499756%, 89.7995%)" offset="0.28125"/><stop stop-opacity="1" stop-color="rgb(5.099487%, 43.534851%, 89.807129%)" offset="0.289062"/><stop stop-opacity="1" stop-color="rgb(5.099487%, 43.746948%, 89.849854%)" offset="0.296875"/><stop stop-opacity="1" stop-color="rgb(5.099487%, 44.099426%, 89.920044%)" offset="0.304688"/><stop stop-opacity="1" stop-color="rgb(5.099487%, 44.451904%, 89.99176%)" offset="0.3125"/><stop stop-opacity="1" stop-color="rgb(5.099487%, 44.804382%, 90.063477%)" offset="0.320312"/><stop stop-opacity="1" stop-color="rgb(5.099487%, 45.15686%, 90.135193%)" offset="0.328125"/><stop stop-opacity="1" stop-color="rgb(5.099487%, 45.509338%, 90.206909%)" offset="0.335938"/><stop stop-opacity="1" stop-color="rgb(5.099487%, 45.861816%, 90.278625%)" offset="0.34375"/><stop stop-opacity="1" stop-color="rgb(5.099487%, 46.214294%, 90.350342%)" offset="0.351563"/><stop stop-opacity="1" stop-color="rgb(5.099487%, 46.566772%, 90.420532%)" offset="0.359375"/><stop stop-opacity="1" stop-color="rgb(5.099487%, 46.91925%, 90.492249%)" offset="0.367188"/><stop stop-opacity="1" stop-color="rgb(5.099487%, 47.270203%, 90.563965%)" offset="0.375"/><stop stop-opacity="1" stop-color="rgb(5.099487%, 47.622681%, 90.635681%)" offset="0.382812"/><stop stop-opacity="1" stop-color="rgb(5.099487%, 47.975159%, 90.707397%)" offset="0.390625"/><stop stop-opacity="1" stop-color="rgb(5.099487%, 48.327637%, 90.779114%)" offset="0.398438"/><stop stop-opacity="1" stop-color="rgb(5.099487%, 48.680115%, 90.85083%)" offset="0.40625"/><stop stop-opacity="1" stop-color="rgb(5.099487%, 49.032593%, 90.921021%)" offset="0.414062"/><stop stop-opacity="1" stop-color="rgb(5.099487%, 49.385071%, 90.992737%)" offset="0.421875"/><stop stop-opacity="1" stop-color="rgb(5.099487%, 49.737549%, 91.064453%)" offset="0.429687"/><stop stop-opacity="1" stop-color="rgb(5.099487%, 50.090027%, 91.136169%)" offset="0.4375"/><stop stop-opacity="1" stop-color="rgb(5.099487%, 50.442505%, 91.207886%)" offset="0.445312"/><stop stop-opacity="1" stop-color="rgb(5.099487%, 50.794983%, 91.279602%)" offset="0.451191"/><stop stop-opacity="1" stop-color="rgb(5.099487%, 50.970459%, 91.316223%)" offset="0.453125"/><stop stop-opacity="1" stop-color="rgb(5.099487%, 51.145935%, 91.351318%)" offset="0.460938"/><stop stop-opacity="1" stop-color="rgb(5.099487%, 51.498413%, 91.423035%)" offset="0.46875"/><stop stop-opacity="1" stop-color="rgb(5.099487%, 51.850891%, 91.493225%)" offset="0.476562"/><stop stop-opacity="1" stop-color="rgb(5.099487%, 52.203369%, 91.564941%)" offset="0.484375"/><stop stop-opacity="1" stop-color="rgb(5.099487%, 52.555847%, 91.636658%)" offset="0.492188"/><stop stop-opacity="1" stop-color="rgb(5.099487%, 52.908325%, 91.708374%)" offset="0.5"/><stop stop-opacity="1" stop-color="rgb(5.099487%, 53.260803%, 91.78009%)" offset="0.507812"/><stop stop-opacity="1" stop-color="rgb(5.099487%, 53.613281%, 91.851807%)" offset="0.515625"/><stop stop-opacity="1" stop-color="rgb(5.099487%, 53.965759%, 91.923523%)" offset="0.523438"/><stop stop-opacity="1" stop-color="rgb(5.099487%, 54.318237%, 91.993713%)" offset="0.53125"/><stop stop-opacity="1" stop-color="rgb(5.099487%, 54.669189%, 92.06543%)" offset="0.539062"/><stop stop-opacity="1" stop-color="rgb(5.099487%, 55.021667%, 92.137146%)" offset="0.546875"/><stop stop-opacity="1" stop-color="rgb(5.099487%, 55.374146%, 92.208862%)" offset="0.548809"/><stop stop-opacity="1" stop-color="rgb(5.099487%, 55.551147%, 92.245483%)" offset="0.554688"/><stop stop-opacity="1" stop-color="rgb(5.099487%, 55.726624%, 92.280579%)" offset="0.5625"/><stop stop-opacity="1" stop-color="rgb(5.099487%, 56.079102%, 92.352295%)" offset="0.570312"/><stop stop-opacity="1" stop-color="rgb(5.099487%, 56.43158%, 92.424011%)" offset="0.578125"/><stop stop-opacity="1" stop-color="rgb(5.099487%, 56.784058%, 92.494202%)" offset="0.585938"/><stop stop-opacity="1" stop-color="rgb(5.099487%, 57.136536%, 92.565918%)" offset="0.59375"/><stop stop-opacity="1" stop-color="rgb(5.099487%, 57.489014%, 92.637634%)" offset="0.601563"/><stop stop-opacity="1" stop-color="rgb(5.099487%, 57.841492%, 92.709351%)" offset="0.609375"/><stop stop-opacity="1" stop-color="rgb(5.099487%, 58.19397%, 92.781067%)" offset="0.617188"/><stop stop-opacity="1" stop-color="rgb(5.099487%, 58.544922%, 92.852783%)" offset="0.625"/><stop stop-opacity="1" stop-color="rgb(5.099487%, 58.8974%, 92.9245%)" offset="0.632813"/><stop stop-opacity="1" stop-color="rgb(5.099487%, 59.249878%, 92.99469%)" offset="0.640625"/><stop stop-opacity="1" stop-color="rgb(5.099487%, 59.602356%, 93.066406%)" offset="0.648438"/><stop stop-opacity="1" stop-color="rgb(5.099487%, 59.954834%, 93.138123%)" offset="0.65625"/><stop stop-opacity="1" stop-color="rgb(5.099487%, 60.307312%, 93.209839%)" offset="0.664063"/><stop stop-opacity="1" stop-color="rgb(5.099487%, 60.65979%, 93.281555%)" offset="0.671875"/><stop stop-opacity="1" stop-color="rgb(5.099487%, 61.012268%, 93.353271%)" offset="0.679688"/><stop stop-opacity="1" stop-color="rgb(5.099487%, 61.364746%, 93.424988%)" offset="0.6875"/><stop stop-opacity="1" stop-color="rgb(5.099487%, 61.717224%, 93.496704%)" offset="0.695312"/><stop stop-opacity="1" stop-color="rgb(5.099487%, 62.068176%, 93.566895%)" offset="0.703125"/><stop stop-opacity="1" stop-color="rgb(5.099487%, 62.420654%, 93.638611%)" offset="0.710938"/><stop stop-opacity="1" stop-color="rgb(5.099487%, 62.773132%, 93.710327%)" offset="0.71875"/><stop stop-opacity="1" stop-color="rgb(5.099487%, 63.12561%, 93.782043%)" offset="0.726562"/><stop stop-opacity="1" stop-color="rgb(5.099487%, 63.478088%, 93.85376%)" offset="0.734375"/><stop stop-opacity="1" stop-color="rgb(5.099487%, 63.830566%, 93.925476%)" offset="0.742188"/><stop stop-opacity="1" stop-color="rgb(5.099487%, 64.183044%, 93.997192%)" offset="0.75"/><stop stop-opacity="1" stop-color="rgb(5.099487%, 64.535522%, 94.067383%)" offset="0.757812"/><stop stop-opacity="1" stop-color="rgb(5.099487%, 64.888%, 94.139099%)" offset="0.765625"/><stop stop-opacity="1" stop-color="rgb(5.099487%, 65.240479%, 94.210815%)" offset="0.773438"/><stop stop-opacity="1" stop-color="rgb(5.099487%, 65.592957%, 94.282532%)" offset="0.78125"/><stop stop-opacity="1" stop-color="rgb(5.099487%, 65.943909%, 94.354248%)" offset="0.789062"/><stop stop-opacity="1" stop-color="rgb(5.099487%, 66.296387%, 94.425964%)" offset="0.796875"/><stop stop-opacity="1" stop-color="rgb(5.099487%, 66.648865%, 94.497681%)" offset="0.804688"/><stop stop-opacity="1" stop-color="rgb(5.099487%, 67.001343%, 94.567871%)" offset="0.8125"/><stop stop-opacity="1" stop-color="rgb(5.099487%, 67.353821%, 94.639587%)" offset="0.820312"/><stop stop-opacity="1" stop-color="rgb(5.099487%, 67.706299%, 94.711304%)" offset="0.828125"/><stop stop-opacity="1" stop-color="rgb(5.099487%, 68.058777%, 94.78302%)" offset="0.835938"/><stop stop-opacity="1" stop-color="rgb(5.099487%, 68.411255%, 94.854736%)" offset="0.84375"/><stop stop-opacity="1" stop-color="rgb(5.099487%, 68.763733%, 94.926453%)" offset="0.851562"/><stop stop-opacity="1" stop-color="rgb(5.099487%, 69.116211%, 94.998169%)" offset="0.859375"/><stop stop-opacity="1" stop-color="rgb(5.099487%, 69.468689%, 95.068359%)" offset="0.867188"/><stop stop-opacity="1" stop-color="rgb(5.099487%, 69.819641%, 95.140076%)" offset="0.875"/><stop stop-opacity="1" stop-color="rgb(5.099487%, 70.172119%, 95.211792%)" offset="0.882812"/><stop stop-opacity="1" stop-color="rgb(5.099487%, 70.474243%, 95.272827%)" offset="0.890625"/><stop stop-opacity="1" stop-color="rgb(5.099487%, 70.599365%, 95.298767%)" offset="0.90625"/><stop stop-opacity="1" stop-color="rgb(5.099487%, 70.599365%, 95.298767%)" offset="0.9375"/><stop stop-opacity="1" stop-color="rgb(5.099487%, 70.599365%, 95.298767%)" offset="1"/></linearGradient><clipPath id="b59b3bb366"><path d="M 160 128 L 227 128 L 227 212.859375 L 160 212.859375 Z M 160 128 " clip-rule="nonzero"/></clipPath><clipPath id="1deb5d1330"><path d="M 226.101562 138.285156 C 226.101562 166.753906 185.046875 212.859375 185.046875 212.859375 C 185.046875 212.859375 172.285156 198.636719 160.984375 181.058594 C 171.972656 176.839844 182.613281 171.855469 192.40625 165.375 C 206.183594 156.246094 218.261719 143.765625 224.992188 128.859375 C 225.71875 131.894531 226.101562 135.042969 226.101562 138.285156 Z M 226.101562 138.285156 " clip-rule="nonzero"/></clipPath><linearGradient x1="207.256413" gradientTransform="matrix(0.333191, 0, 0, 0.332173, 143.998643, 97.357478)" y1="360.323116" x2="115.080014" gradientUnits="userSpaceOnUse" y2="74.190429" id="1dc84d0d53"><stop stop-opacity="1" stop-color="rgb(0%, 88.198853%, 57.998657%)" offset="0"/><stop stop-opacity="1" stop-color="rgb(0%, 88.198853%, 57.998657%)" offset="0.0625"/><stop stop-opacity="1" stop-color="rgb(0.012207%, 88.052368%, 58.123779%)" offset="0.078125"/><stop stop-opacity="1" stop-color="rgb(0.0366211%, 87.757874%, 58.375549%)" offset="0.0859375"/><stop stop-opacity="1" stop-color="rgb(0.0610352%, 87.460327%, 58.628845%)" offset="0.09375"/><stop stop-opacity="1" stop-color="rgb(0.0854492%, 87.161255%, 58.883667%)" offset="0.101562"/><stop stop-opacity="1" stop-color="rgb(0.111389%, 86.863708%, 59.138489%)" offset="0.109375"/><stop stop-opacity="1" stop-color="rgb(0.135803%, 86.564636%, 59.393311%)" offset="0.117187"/><stop stop-opacity="1" stop-color="rgb(0.160217%, 86.26709%, 59.648132%)" offset="0.125"/><stop stop-opacity="1" stop-color="rgb(0.186157%, 85.969543%, 59.901428%)" offset="0.132812"/><stop stop-opacity="1" stop-color="rgb(0.210571%, 85.670471%, 60.15625%)" offset="0.140625"/><stop stop-opacity="1" stop-color="rgb(0.234985%, 85.372925%, 60.411072%)" offset="0.148438"/><stop stop-opacity="1" stop-color="rgb(0.260925%, 85.073853%, 60.665894%)" offset="0.15625"/><stop stop-opacity="1" stop-color="rgb(0.285339%, 84.776306%, 60.920715%)" offset="0.164062"/><stop stop-opacity="1" stop-color="rgb(0.309753%, 84.47876%, 61.174011%)" offset="0.171875"/><stop stop-opacity="1" stop-color="rgb(0.335693%, 84.179688%, 61.428833%)" offset="0.179688"/><stop stop-opacity="1" stop-color="rgb(0.360107%, 83.882141%, 61.683655%)" offset="0.1875"/><stop stop-opacity="1" stop-color="rgb(0.384521%, 83.583069%, 61.938477%)" offset="0.195312"/><stop stop-opacity="1" stop-color="rgb(0.410461%, 83.285522%, 62.191772%)" offset="0.19934"/><stop stop-opacity="1" stop-color="rgb(0.422668%, 83.137512%, 62.319946%)" offset="0.203125"/><stop stop-opacity="1" stop-color="rgb(0.434875%, 82.987976%, 62.446594%)" offset="0.210937"/><stop stop-opacity="1" stop-color="rgb(0.45929%, 82.688904%, 62.701416%)" offset="0.21875"/><stop stop-opacity="1" stop-color="rgb(0.485229%, 82.391357%, 62.956238%)" offset="0.226562"/><stop stop-opacity="1" stop-color="rgb(0.509644%, 82.092285%, 63.21106%)" offset="0.234375"/><stop stop-opacity="1" stop-color="rgb(0.535583%, 81.794739%, 63.464355%)" offset="0.242187"/><stop stop-opacity="1" stop-color="rgb(0.559998%, 81.497192%, 63.719177%)" offset="0.25"/><stop stop-opacity="1" stop-color="rgb(0.584412%, 81.19812%, 63.973999%)" offset="0.257812"/><stop stop-opacity="1" stop-color="rgb(0.610352%, 80.900574%, 64.228821%)" offset="0.265625"/><stop stop-opacity="1" stop-color="rgb(0.634766%, 80.601501%, 64.483643%)" offset="0.273437"/><stop stop-opacity="1" stop-color="rgb(0.65918%, 80.303955%, 64.736938%)" offset="0.28125"/><stop stop-opacity="1" stop-color="rgb(0.68512%, 80.006409%, 64.99176%)" offset="0.289062"/><stop stop-opacity="1" stop-color="rgb(0.709534%, 79.707336%, 65.246582%)" offset="0.296875"/><stop stop-opacity="1" stop-color="rgb(0.733948%, 79.40979%, 65.501404%)" offset="0.304687"/><stop stop-opacity="1" stop-color="rgb(0.759888%, 79.110718%, 65.7547%)" offset="0.3125"/><stop stop-opacity="1" stop-color="rgb(0.784302%, 78.813171%, 66.009521%)" offset="0.320312"/><stop stop-opacity="1" stop-color="rgb(0.808716%, 78.514099%, 66.264343%)" offset="0.328125"/><stop stop-opacity="1" stop-color="rgb(0.834656%, 78.216553%, 66.519165%)" offset="0.335937"/><stop stop-opacity="1" stop-color="rgb(0.85907%, 77.919006%, 66.773987%)" offset="0.34375"/><stop stop-opacity="1" stop-color="rgb(0.883484%, 77.619934%, 67.027283%)" offset="0.351562"/><stop stop-opacity="1" stop-color="rgb(0.909424%, 77.322388%, 67.282104%)" offset="0.359375"/><stop stop-opacity="1" stop-color="rgb(0.933838%, 77.023315%, 67.536926%)" offset="0.367187"/><stop stop-opacity="1" stop-color="rgb(0.959778%, 76.725769%, 67.791748%)" offset="0.375"/><stop stop-opacity="1" stop-color="rgb(0.984192%, 76.428223%, 68.04657%)" offset="0.382812"/><stop stop-opacity="1" stop-color="rgb(1.008606%, 76.12915%, 68.299866%)" offset="0.390625"/><stop stop-opacity="1" stop-color="rgb(1.034546%, 75.831604%, 68.554688%)" offset="0.398438"/><stop stop-opacity="1" stop-color="rgb(1.05896%, 75.532532%, 68.809509%)" offset="0.40625"/><stop stop-opacity="1" stop-color="rgb(1.083374%, 75.234985%, 69.064331%)" offset="0.414062"/><stop stop-opacity="1" stop-color="rgb(1.109314%, 74.937439%, 69.317627%)" offset="0.421875"/><stop stop-opacity="1" stop-color="rgb(1.133728%, 74.638367%, 69.572449%)" offset="0.429687"/><stop stop-opacity="1" stop-color="rgb(1.158142%, 74.34082%, 69.827271%)" offset="0.4375"/><stop stop-opacity="1" stop-color="rgb(1.184082%, 74.041748%, 70.082092%)" offset="0.445312"/><stop stop-opacity="1" stop-color="rgb(1.208496%, 73.744202%, 70.336914%)" offset="0.453125"/><stop stop-opacity="1" stop-color="rgb(1.23291%, 73.446655%, 70.59021%)" offset="0.460937"/><stop stop-opacity="1" stop-color="rgb(1.25885%, 73.147583%, 70.845032%)" offset="0.46875"/><stop stop-opacity="1" stop-color="rgb(1.283264%, 72.850037%, 71.099854%)" offset="0.476562"/><stop stop-opacity="1" stop-color="rgb(1.307678%, 72.550964%, 71.354675%)" offset="0.484375"/><stop stop-opacity="1" stop-color="rgb(1.333618%, 72.253418%, 71.609497%)" offset="0.492187"/><stop stop-opacity="1" stop-color="rgb(1.358032%, 71.955872%, 71.862793%)" offset="0.5"/><stop stop-opacity="1" stop-color="rgb(1.382446%, 71.656799%, 72.117615%)" offset="0.507812"/><stop stop-opacity="1" stop-color="rgb(1.408386%, 71.359253%, 72.372437%)" offset="0.515625"/><stop stop-opacity="1" stop-color="rgb(1.4328%, 71.060181%, 72.627258%)" offset="0.523438"/><stop stop-opacity="1" stop-color="rgb(1.45874%, 70.762634%, 72.88208%)" offset="0.53125"/><stop stop-opacity="1" stop-color="rgb(1.483154%, 70.465088%, 73.135376%)" offset="0.539062"/><stop stop-opacity="1" stop-color="rgb(1.507568%, 70.166016%, 73.390198%)" offset="0.546875"/><stop stop-opacity="1" stop-color="rgb(1.533508%, 69.868469%, 73.64502%)" offset="0.554688"/><stop stop-opacity="1" stop-color="rgb(1.557922%, 69.569397%, 73.899841%)" offset="0.5625"/><stop stop-opacity="1" stop-color="rgb(1.582336%, 69.271851%, 74.153137%)" offset="0.570312"/><stop stop-opacity="1" stop-color="rgb(1.608276%, 68.974304%, 74.407959%)" offset="0.578125"/><stop stop-opacity="1" stop-color="rgb(1.63269%, 68.675232%, 74.662781%)" offset="0.585938"/><stop stop-opacity="1" stop-color="rgb(1.657104%, 68.377686%, 74.917603%)" offset="0.59375"/><stop stop-opacity="1" stop-color="rgb(1.683044%, 68.078613%, 75.172424%)" offset="0.601562"/><stop stop-opacity="1" stop-color="rgb(1.707458%, 67.781067%, 75.42572%)" offset="0.609375"/><stop stop-opacity="1" stop-color="rgb(1.731873%, 67.483521%, 75.680542%)" offset="0.617188"/><stop stop-opacity="1" stop-color="rgb(1.757812%, 67.184448%, 75.935364%)" offset="0.625"/><stop stop-opacity="1" stop-color="rgb(1.782227%, 66.886902%, 76.190186%)" offset="0.632812"/><stop stop-opacity="1" stop-color="rgb(1.806641%, 66.58783%, 76.445007%)" offset="0.640625"/><stop stop-opacity="1" stop-color="rgb(1.832581%, 66.290283%, 76.698303%)" offset="0.648438"/><stop stop-opacity="1" stop-color="rgb(1.856995%, 65.992737%, 76.953125%)" offset="0.65625"/><stop stop-opacity="1" stop-color="rgb(1.882935%, 65.693665%, 77.207947%)" offset="0.664062"/><stop stop-opacity="1" stop-color="rgb(1.907349%, 65.396118%, 77.462769%)" offset="0.671875"/><stop stop-opacity="1" stop-color="rgb(1.931763%, 65.097046%, 77.716064%)" offset="0.679688"/><stop stop-opacity="1" stop-color="rgb(1.957703%, 64.7995%, 77.970886%)" offset="0.6875"/><stop stop-opacity="1" stop-color="rgb(1.983643%, 64.474487%, 78.248596%)" offset="0.75"/><stop stop-opacity="1" stop-color="rgb(1.998901%, 64.299011%, 78.399658%)" offset="0.80066"/><stop stop-opacity="1" stop-color="rgb(1.998901%, 64.299011%, 78.399658%)" offset="1"/></linearGradient><clipPath id="dd45158668"><path d="M 226 98 L 249.734375 98 L 249.734375 124 L 226 124 Z M 226 98 " clip-rule="nonzero"/></clipPath><clipPath id="e670b8eea5"><path d="M 249.710938 99.890625 L 249.496094 102.355469 C 249.390625 102.957031 248.949219 103.796875 248.511719 104.222656 L 245.75 106.917969 C 245.3125 107.347656 245.101562 108.167969 245.28125 108.753906 L 248.175781 118.136719 C 248.359375 118.722656 248.34375 119.667969 248.148438 120.246094 L 248.117188 120.328125 C 247.917969 120.910156 247.484375 120.957031 247.152344 120.445312 L 241.671875 112.007812 C 241.335938 111.496094 240.691406 111.40625 240.226562 111.804688 L 234.785156 116.542969 C 234.328125 116.945312 234.042969 117.757812 234.160156 118.359375 L 234.652344 120.914062 C 234.773438 121.511719 234.738281 122.394531 234.578125 122.875 C 234.417969 123.355469 234.011719 123.332031 233.667969 122.832031 L 231.859375 120.179688 C 231.519531 119.679688 230.972656 119.503906 230.640625 119.800781 C 230.3125 120.101562 229.859375 120.355469 229.625 120.371094 C 229.394531 120.386719 229.214844 120.246094 229.226562 120.054688 C 229.234375 119.867188 229.417969 119.386719 229.644531 118.992188 C 229.867188 118.59375 229.601562 118.050781 229.050781 117.78125 L 228.902344 117.707031 C 228.90625 117.691406 228.910156 117.675781 228.914062 117.664062 C 228.90625 117.675781 228.894531 117.6875 228.890625 117.699219 L 226.835938 116.6875 C 226.289062 116.421875 225.984375 116.015625 226.15625 115.792969 C 226.332031 115.570312 226.96875 115.417969 227.585938 115.453125 L 231.238281 115.652344 C 231.851562 115.691406 232.621094 115.300781 232.953125 114.789062 L 236.691406 109.082031 C 237.027344 108.570312 236.867188 107.914062 236.328125 107.613281 L 227.960938 102.972656 C 227.417969 102.683594 227.332031 102.253906 227.753906 102.027344 C 228.171875 101.808594 229 101.734375 229.597656 101.867188 L 239.949219 103.867188 C 240.546875 104.003906 241.359375 103.746094 241.765625 103.285156 L 244.503906 100.289062 C 244.914062 99.828125 245.730469 99.375 246.335938 99.269531 L 248.796875 98.984375 C 249.402344 98.882812 249.808594 99.289062 249.710938 99.890625 Z M 249.710938 99.890625 " clip-rule="nonzero"/></clipPath><linearGradient x1="274.56962" gradientTransform="matrix(0.333191, 0, 0, 0.332173, 143.998643, 97.357478)" y1="-1.69558" x2="293.365501" gradientUnits="userSpaceOnUse" y2="83.557373" id="66c055d471"><stop stop-opacity="1" stop-color="rgb(5.099487%, 44.961548%, 90.09552%)" offset="0"/><stop stop-opacity="1" stop-color="rgb(5.099487%, 45.153809%, 90.135193%)" offset="0.015625"/><stop stop-opacity="1" stop-color="rgb(5.099487%, 45.539856%, 90.213013%)" offset="0.03125"/><stop stop-opacity="1" stop-color="rgb(5.099487%, 45.927429%, 90.292358%)" offset="0.046875"/><stop stop-opacity="1" stop-color="rgb(5.099487%, 46.313477%, 90.370178%)" offset="0.0625"/><stop stop-opacity="1" stop-color="rgb(5.099487%, 46.699524%, 90.447998%)" offset="0.078125"/><stop stop-opacity="1" stop-color="rgb(5.099487%, 47.087097%, 90.527344%)" offset="0.09375"/><stop stop-opacity="1" stop-color="rgb(5.099487%, 47.473145%, 90.605164%)" offset="0.109375"/><stop stop-opacity="1" stop-color="rgb(5.099487%, 47.859192%, 90.684509%)" offset="0.125"/><stop stop-opacity="1" stop-color="rgb(5.099487%, 48.246765%, 90.762329%)" offset="0.140625"/><stop stop-opacity="1" stop-color="rgb(5.099487%, 48.632812%, 90.840149%)" offset="0.15625"/><stop stop-opacity="1" stop-color="rgb(5.099487%, 49.01886%, 90.919495%)" offset="0.171875"/><stop stop-opacity="1" stop-color="rgb(5.099487%, 49.406433%, 90.997314%)" offset="0.175811"/><stop stop-opacity="1" stop-color="rgb(5.099487%, 49.60022%, 91.036987%)" offset="0.1875"/><stop stop-opacity="1" stop-color="rgb(5.099487%, 49.79248%, 91.07666%)" offset="0.203125"/><stop stop-opacity="1" stop-color="rgb(5.099487%, 50.178528%, 91.15448%)" offset="0.21875"/><stop stop-opacity="1" stop-color="rgb(5.099487%, 50.566101%, 91.2323%)" offset="0.234375"/><stop stop-opacity="1" stop-color="rgb(5.099487%, 50.952148%, 91.311646%)" offset="0.25"/><stop stop-opacity="1" stop-color="rgb(5.099487%, 51.338196%, 91.389465%)" offset="0.265625"/><stop stop-opacity="1" stop-color="rgb(5.099487%, 51.725769%, 91.468811%)" offset="0.28125"/><stop stop-opacity="1" stop-color="rgb(5.099487%, 52.111816%, 91.546631%)" offset="0.296875"/><stop stop-opacity="1" stop-color="rgb(5.099487%, 52.497864%, 91.625977%)" offset="0.3125"/><stop stop-opacity="1" stop-color="rgb(5.099487%, 52.885437%, 91.703796%)" offset="0.328125"/><stop stop-opacity="1" stop-color="rgb(5.099487%, 53.271484%, 91.781616%)" offset="0.34375"/><stop stop-opacity="1" stop-color="rgb(5.099487%, 53.657532%, 91.860962%)" offset="0.359375"/><stop stop-opacity="1" stop-color="rgb(5.099487%, 54.045105%, 91.938782%)" offset="0.375"/><stop stop-opacity="1" stop-color="rgb(5.099487%, 54.431152%, 92.018127%)" offset="0.390625"/><stop stop-opacity="1" stop-color="rgb(5.099487%, 54.8172%, 92.095947%)" offset="0.40625"/><stop stop-opacity="1" stop-color="rgb(5.099487%, 55.204773%, 92.173767%)" offset="0.421875"/><stop stop-opacity="1" stop-color="rgb(5.099487%, 55.59082%, 92.253113%)" offset="0.4375"/><stop stop-opacity="1" stop-color="rgb(5.099487%, 55.976868%, 92.330933%)" offset="0.453125"/><stop stop-opacity="1" stop-color="rgb(5.099487%, 56.364441%, 92.410278%)" offset="0.46875"/><stop stop-opacity="1" stop-color="rgb(5.099487%, 56.750488%, 92.488098%)" offset="0.484375"/><stop stop-opacity="1" stop-color="rgb(5.099487%, 57.136536%, 92.567444%)" offset="0.5"/><stop stop-opacity="1" stop-color="rgb(5.099487%, 57.524109%, 92.645264%)" offset="0.515625"/><stop stop-opacity="1" stop-color="rgb(5.099487%, 57.910156%, 92.723083%)" offset="0.53125"/><stop stop-opacity="1" stop-color="rgb(5.099487%, 58.296204%, 92.802429%)" offset="0.546875"/><stop stop-opacity="1" stop-color="rgb(5.099487%, 58.683777%, 92.880249%)" offset="0.5625"/><stop stop-opacity="1" stop-color="rgb(5.099487%, 59.069824%, 92.959595%)" offset="0.578125"/><stop stop-opacity="1" stop-color="rgb(5.099487%, 59.455872%, 93.037415%)" offset="0.59375"/><stop stop-opacity="1" stop-color="rgb(5.099487%, 59.843445%, 93.115234%)" offset="0.609375"/><stop stop-opacity="1" stop-color="rgb(5.099487%, 60.229492%, 93.19458%)" offset="0.625"/><stop stop-opacity="1" stop-color="rgb(5.099487%, 60.61554%, 93.2724%)" offset="0.640625"/><stop stop-opacity="1" stop-color="rgb(5.099487%, 61.003113%, 93.351746%)" offset="0.65625"/><stop stop-opacity="1" stop-color="rgb(5.099487%, 61.38916%, 93.429565%)" offset="0.671875"/><stop stop-opacity="1" stop-color="rgb(5.099487%, 61.775208%, 93.508911%)" offset="0.6875"/><stop stop-opacity="1" stop-color="rgb(5.099487%, 62.162781%, 93.586731%)" offset="0.703125"/><stop stop-opacity="1" stop-color="rgb(5.099487%, 62.548828%, 93.664551%)" offset="0.71875"/><stop stop-opacity="1" stop-color="rgb(5.099487%, 62.934875%, 93.743896%)" offset="0.734375"/><stop stop-opacity="1" stop-color="rgb(5.099487%, 63.322449%, 93.821716%)" offset="0.75"/><stop stop-opacity="1" stop-color="rgb(5.099487%, 63.708496%, 93.901062%)" offset="0.765625"/><stop stop-opacity="1" stop-color="rgb(5.099487%, 64.094543%, 93.978882%)" offset="0.78125"/><stop stop-opacity="1" stop-color="rgb(5.099487%, 64.482117%, 94.056702%)" offset="0.796875"/><stop stop-opacity="1" stop-color="rgb(5.099487%, 64.868164%, 94.136047%)" offset="0.8125"/><stop stop-opacity="1" stop-color="rgb(5.099487%, 65.254211%, 94.213867%)" offset="0.824189"/><stop stop-opacity="1" stop-color="rgb(5.099487%, 65.447998%, 94.25354%)" offset="0.828125"/><stop stop-opacity="1" stop-color="rgb(5.099487%, 65.641785%, 94.293213%)" offset="0.84375"/><stop stop-opacity="1" stop-color="rgb(5.099487%, 66.027832%, 94.371033%)" offset="0.859375"/><stop stop-opacity="1" stop-color="rgb(5.099487%, 66.413879%, 94.450378%)" offset="0.875"/><stop stop-opacity="1" stop-color="rgb(5.099487%, 66.801453%, 94.528198%)" offset="0.890625"/><stop stop-opacity="1" stop-color="rgb(5.099487%, 67.1875%, 94.606018%)" offset="0.90625"/><stop stop-opacity="1" stop-color="rgb(5.099487%, 67.575073%, 94.685364%)" offset="0.921875"/><stop stop-opacity="1" stop-color="rgb(5.099487%, 67.961121%, 94.763184%)" offset="0.9375"/><stop stop-opacity="1" stop-color="rgb(5.099487%, 68.347168%, 94.842529%)" offset="0.953125"/><stop stop-opacity="1" stop-color="rgb(5.099487%, 68.734741%, 94.920349%)" offset="0.96875"/><stop stop-opacity="1" stop-color="rgb(5.099487%, 69.120789%, 94.998169%)" offset="0.984375"/><stop stop-opacity="1" stop-color="rgb(5.099487%, 69.506836%, 95.077515%)" offset="1"/></linearGradient><clipPath id="ad2971d947"><path d="M 228 117 L 229 117 L 229 118 L 228 118 Z M 228 117 " clip-rule="nonzero"/></clipPath><clipPath id="fd1463d718"><path d="M 228.886719 117.695312 L 228.894531 117.703125 C 228.898438 117.691406 228.902344 117.671875 228.90625 117.660156 C 228.898438 117.671875 228.890625 117.6875 228.886719 117.695312 Z M 228.886719 117.695312 " clip-rule="nonzero"/></clipPath><linearGradient x1="-1899.39711" gradientTransform="matrix(-0.0830246, 0.321696, -0.322681, -0.082771, -555.885232, 567.845176)" y1="-1943.262097" x2="-1899.467561" gradientUnits="userSpaceOnUse" y2="-1943.391057" id="5e2fd58565"><stop stop-opacity="1" stop-color="rgb(5.099487%, 58.894348%, 92.9245%)" offset="0"/><stop stop-opacity="1" stop-color="rgb(5.099487%, 58.8974%, 92.9245%)" offset="0.459526"/><stop stop-opacity="1" stop-color="rgb(5.099487%, 58.901978%, 92.9245%)" offset="0.5"/><stop stop-opacity="1" stop-color="rgb(5.099487%, 58.905029%, 92.9245%)" offset="0.540474"/><stop stop-opacity="1" stop-color="rgb(5.099487%, 58.909607%, 92.926025%)" offset="1"/></linearGradient></defs><g clip-path="url(#b263e831b1)"><g clip-path="url(#8757bc6d8d)"><path fill="url(#db13dcd6d6)" d="M 144 97.359375 L 144 150.144531 L 223.683594 150.144531 L 223.683594 97.359375 Z M 144 97.359375 " fill-rule="nonzero"/></g></g><g clip-path="url(#b59b3bb366)"><g clip-path="url(#1deb5d1330)"><path fill="url(#1dc84d0d53)" d="M 160.984375 128.859375 L 160.984375 212.859375 L 226.101562 212.859375 L 226.101562 128.859375 Z M 160.984375 128.859375 " fill-rule="nonzero"/></g></g><g clip-path="url(#dd45158668)"><g clip-path="url(#e670b8eea5)"><path fill="url(#66c055d471)" d="M 225.984375 98.882812 L 225.984375 123.355469 L 249.734375 123.355469 L 249.734375 98.882812 Z M 225.984375 98.882812 " fill-rule="nonzero"/></g></g><g clip-path="url(#ad2971d947)"><g clip-path="url(#fd1463d718)"><path fill="url(#5e2fd58565)" d="M 228.917969 117.664062 L 228.886719 117.65625 L 228.875 117.699219 L 228.90625 117.707031 Z M 228.917969 117.664062 " fill-rule="nonzero"/></g></g><g fill="#545454" fill-opacity="1"><g transform="translate(142.666356, 261.651544)"><g><path d="M 5.03125 -8.25 L 5.03125 0 L 2.296875 0 L 2.296875 -20.0625 L 15.171875 -20.0625 L 15.171875 -17.59375 L 5.03125 -17.59375 L 5.03125 -10.65625 L 13.984375 -10.65625 L 13.984375 -8.25 Z M 5.03125 -8.25 "/></g></g></g><g fill="#545454" fill-opacity="1"><g transform="translate(158.598443, 261.651544)"><g><path d="M 19.328125 -10.078125 C 19.328125 -6.429688 18.628906 -3.796875 17.234375 -2.171875 C 15.835938 -0.554688 13.5625 0.25 10.40625 0.25 C 7.007812 0.25 4.664062 -0.5 3.375 -2 C 2.082031 -3.5 1.4375 -6.191406 1.4375 -10.078125 C 1.4375 -13.703125 2.140625 -16.328125 3.546875 -17.953125 C 4.953125 -19.578125 7.238281 -20.390625 10.40625 -20.390625 C 13.789062 -20.390625 16.125 -19.632812 17.40625 -18.125 C 18.6875 -16.625 19.328125 -13.941406 19.328125 -10.078125 Z M 5.15625 -4.28125 C 5.5625 -3.5625 6.15625 -3.050781 6.9375 -2.75 C 7.726562 -2.445312 8.882812 -2.296875 10.40625 -2.296875 C 12.769531 -2.296875 14.390625 -2.867188 15.265625 -4.015625 C 16.140625 -5.160156 16.578125 -7.179688 16.578125 -10.078125 C 16.578125 -11.523438 16.5 -12.710938 16.34375 -13.640625 C 16.195312 -14.578125 15.960938 -15.332031 15.640625 -15.90625 C 15.242188 -16.625 14.65625 -17.140625 13.875 -17.453125 C 13.09375 -17.765625 11.9375 -17.921875 10.40625 -17.921875 C 8.007812 -17.921875 6.375 -17.34375 5.5 -16.1875 C 4.625 -15.039062 4.1875 -13.003906 4.1875 -10.078125 C 4.1875 -8.628906 4.257812 -7.441406 4.40625 -6.515625 C 4.5625 -5.585938 4.8125 -4.84375 5.15625 -4.28125 Z M 5.15625 -4.28125 "/></g></g></g><g fill="#545454" fill-opacity="1"><g transform="translate(179.361342, 261.651544)"><g><path d="M 10.265625 -2.296875 C 11.140625 -2.296875 12.0625 -2.394531 13.03125 -2.59375 C 14.007812 -2.800781 14.914062 -3.078125 15.75 -3.421875 L 15.75 -0.984375 C 14.570312 -0.515625 13.53125 -0.191406 12.625 -0.015625 C 11.71875 0.160156 10.773438 0.25 9.796875 0.25 C 6.722656 0.25 4.554688 -0.539062 3.296875 -2.125 C 2.035156 -3.71875 1.40625 -6.367188 1.40625 -10.078125 C 1.40625 -13.640625 2.132812 -16.25 3.59375 -17.90625 C 5.0625 -19.5625 7.394531 -20.390625 10.59375 -20.390625 C 11.570312 -20.390625 12.445312 -20.363281 13.21875 -20.3125 C 13.988281 -20.269531 14.679688 -20.195312 15.296875 -20.09375 L 15.296875 -17.703125 C 14.546875 -17.785156 13.789062 -17.84375 13.03125 -17.875 C 12.28125 -17.90625 11.46875 -17.921875 10.59375 -17.921875 C 8.207031 -17.921875 6.539062 -17.328125 5.59375 -16.140625 C 4.65625 -14.960938 4.1875 -12.941406 4.1875 -10.078125 C 4.1875 -7.179688 4.613281 -5.160156 5.46875 -4.015625 C 6.320312 -2.867188 7.921875 -2.296875 10.265625 -2.296875 Z M 10.265625 -2.296875 "/></g></g></g><g fill="#545454" fill-opacity="1"><g transform="translate(195.933267, 261.651544)"><g><path d="M 15.421875 -8 L 15.421875 -20.0625 L 18.140625 -20.0625 L 18.140625 -8 C 18.140625 -5.1875 17.484375 -3.109375 16.171875 -1.765625 C 14.859375 -0.421875 12.828125 0.25 10.078125 0.25 C 7.304688 0.25 5.285156 -0.40625 4.015625 -1.71875 C 2.742188 -3.03125 2.109375 -5.125 2.109375 -8 L 2.109375 -20.0625 L 4.828125 -20.0625 L 4.828125 -8 C 4.828125 -5.882812 5.21875 -4.40625 6 -3.5625 C 6.78125 -2.71875 8.140625 -2.296875 10.078125 -2.296875 C 12.046875 -2.296875 13.425781 -2.71875 14.21875 -3.5625 C 15.019531 -4.40625 15.421875 -5.882812 15.421875 -8 Z M 15.421875 -8 "/></g></g></g><g fill="#545454" fill-opacity="1"><g transform="translate(216.184284, 261.651544)"><g><path d="M 10.046875 -8.421875 L 5.1875 -9.5625 C 3.84375 -9.882812 2.867188 -10.4375 2.265625 -11.21875 C 1.671875 -12 1.375 -13.082031 1.375 -14.46875 C 1.375 -16.488281 1.953125 -17.976562 3.109375 -18.9375 C 4.273438 -19.90625 6.085938 -20.390625 8.546875 -20.390625 C 9.566406 -20.390625 10.488281 -20.335938 11.3125 -20.234375 C 12.132812 -20.140625 12.894531 -20 13.59375 -19.8125 L 13.59375 -17.34375 C 12.695312 -17.550781 11.84375 -17.695312 11.03125 -17.78125 C 10.226562 -17.875 9.390625 -17.921875 8.515625 -17.921875 C 6.867188 -17.921875 5.710938 -17.679688 5.046875 -17.203125 C 4.390625 -16.722656 4.0625 -15.875 4.0625 -14.65625 C 4.0625 -13.882812 4.210938 -13.300781 4.515625 -12.90625 C 4.828125 -12.507812 5.335938 -12.226562 6.046875 -12.0625 L 10.875 -10.90625 C 12.582031 -10.5 13.71875 -9.925781 14.28125 -9.1875 C 14.851562 -8.457031 15.140625 -7.328125 15.140625 -5.796875 C 15.140625 -3.597656 14.566406 -2.039062 13.421875 -1.125 C 12.285156 -0.207031 10.476562 0.25 8 0.25 C 6.695312 0.25 5.441406 0.164062 4.234375 0 C 3.035156 -0.164062 2.082031 -0.390625 1.375 -0.671875 L 1.375 -3.234375 C 2.375 -2.929688 3.4375 -2.695312 4.5625 -2.53125 C 5.695312 -2.375 6.84375 -2.296875 8 -2.296875 C 9.601562 -2.296875 10.722656 -2.53125 11.359375 -3 C 11.992188 -3.476562 12.3125 -4.390625 12.3125 -5.734375 C 12.3125 -6.554688 12.15625 -7.15625 11.84375 -7.53125 C 11.539062 -7.90625 10.941406 -8.203125 10.046875 -8.421875 Z M 10.046875 -8.421875 "/></g></g></g><g fill="#545454" fill-opacity="1"><g transform="translate(128.686174, 286.053058)"><g><path d="M 6.890625 -8.875 L 4.265625 -8.875 L 4.265625 0 L 3.015625 0 L 3.015625 -8.875 L 0.40625 -8.875 L 0.40625 -9.953125 L 6.890625 -9.953125 Z M 6.890625 -8.875 "/></g></g></g><g fill="#545454" fill-opacity="1"><g transform="translate(136.963213, 286.053058)"><g><path d="M 7.546875 -4.109375 C 7.546875 -2.742188 7.253906 -1.691406 6.671875 -0.953125 C 6.097656 -0.222656 5.28125 0.140625 4.21875 0.140625 C 3.1875 0.140625 2.375 -0.210938 1.78125 -0.921875 C 1.1875 -1.640625 0.878906 -2.648438 0.859375 -3.953125 L 0.859375 -5.828125 C 0.859375 -7.160156 1.148438 -8.203125 1.734375 -8.953125 C 2.328125 -9.710938 3.148438 -10.09375 4.203125 -10.09375 C 5.242188 -10.09375 6.054688 -9.726562 6.640625 -9 C 7.234375 -8.28125 7.535156 -7.25 7.546875 -5.90625 Z M 6.296875 -5.84375 C 6.296875 -6.894531 6.125 -7.675781 5.78125 -8.1875 C 5.4375 -8.707031 4.910156 -8.96875 4.203125 -8.96875 C 3.515625 -8.96875 2.992188 -8.707031 2.640625 -8.1875 C 2.285156 -7.664062 2.101562 -6.898438 2.09375 -5.890625 L 2.09375 -4.109375 C 2.09375 -3.085938 2.269531 -2.3125 2.625 -1.78125 C 2.976562 -1.25 3.503906 -0.984375 4.203125 -0.984375 C 4.910156 -0.984375 5.429688 -1.226562 5.765625 -1.71875 C 6.109375 -2.207031 6.285156 -2.960938 6.296875 -3.984375 Z M 6.296875 -5.84375 "/></g></g></g><g fill="#545454" fill-opacity="1"><g transform="translate(146.36072, 286.053058)"><g><path d="M 7 -9.953125 L 7 -2.875 C 7 -1.9375 6.726562 -1.195312 6.1875 -0.65625 C 5.644531 -0.125 4.894531 0.140625 3.9375 0.140625 C 2.957031 0.140625 2.207031 -0.117188 1.6875 -0.640625 C 1.164062 -1.160156 0.898438 -1.90625 0.890625 -2.875 L 0.890625 -9.953125 L 2.140625 -9.953125 L 2.140625 -2.921875 C 2.140625 -2.253906 2.28125 -1.753906 2.5625 -1.421875 C 2.84375 -1.097656 3.300781 -0.9375 3.9375 -0.9375 C 4.570312 -0.9375 5.03125 -1.097656 5.3125 -1.421875 C 5.601562 -1.753906 5.75 -2.253906 5.75 -2.921875 L 5.75 -9.953125 Z M 7 -9.953125 "/></g></g></g><g fill="#545454" fill-opacity="1"><g transform="translate(155.211658, 286.053058)"><g><path d="M 4.078125 -4.03125 L 2.328125 -4.03125 L 2.328125 0 L 1.078125 0 L 1.078125 -9.953125 L 3.859375 -9.953125 C 4.835938 -9.953125 5.578125 -9.695312 6.078125 -9.1875 C 6.578125 -8.675781 6.828125 -7.929688 6.828125 -6.953125 C 6.828125 -6.335938 6.691406 -5.800781 6.421875 -5.34375 C 6.148438 -4.882812 5.765625 -4.539062 5.265625 -4.3125 L 7.203125 -0.078125 L 7.203125 0 L 5.859375 0 Z M 2.328125 -5.09375 L 3.84375 -5.09375 C 4.375 -5.09375 4.796875 -5.257812 5.109375 -5.59375 C 5.421875 -5.9375 5.578125 -6.390625 5.578125 -6.953125 C 5.578125 -8.234375 4.992188 -8.875 3.828125 -8.875 L 2.328125 -8.875 Z M 2.328125 -5.09375 "/></g></g></g><g fill="#545454" fill-opacity="1"><g transform="translate(163.632171, 286.053058)"><g><path d="M 5.421875 -2.515625 C 5.421875 -3.015625 5.285156 -3.394531 5.015625 -3.65625 C 4.742188 -3.914062 4.257812 -4.171875 3.5625 -4.421875 C 2.863281 -4.679688 2.328125 -4.945312 1.953125 -5.21875 C 1.578125 -5.5 1.296875 -5.8125 1.109375 -6.15625 C 0.929688 -6.507812 0.84375 -6.914062 0.84375 -7.375 C 0.84375 -8.164062 1.101562 -8.816406 1.625 -9.328125 C 2.15625 -9.835938 2.847656 -10.09375 3.703125 -10.09375 C 4.285156 -10.09375 4.800781 -9.957031 5.25 -9.6875 C 5.707031 -9.425781 6.054688 -9.0625 6.296875 -8.59375 C 6.546875 -8.132812 6.671875 -7.628906 6.671875 -7.078125 L 5.421875 -7.078125 C 5.421875 -7.691406 5.269531 -8.164062 4.96875 -8.5 C 4.675781 -8.84375 4.253906 -9.015625 3.703125 -9.015625 C 3.191406 -9.015625 2.796875 -8.867188 2.515625 -8.578125 C 2.242188 -8.296875 2.109375 -7.898438 2.109375 -7.390625 C 2.109375 -6.972656 2.257812 -6.625 2.5625 -6.34375 C 2.863281 -6.0625 3.328125 -5.804688 3.953125 -5.578125 C 4.929688 -5.253906 5.628906 -4.851562 6.046875 -4.375 C 6.472656 -3.90625 6.6875 -3.289062 6.6875 -2.53125 C 6.6875 -1.71875 6.421875 -1.066406 5.890625 -0.578125 C 5.367188 -0.0976562 4.660156 0.140625 3.765625 0.140625 C 3.179688 0.140625 2.644531 0.015625 2.15625 -0.234375 C 1.664062 -0.492188 1.28125 -0.851562 1 -1.3125 C 0.71875 -1.769531 0.578125 -2.296875 0.578125 -2.890625 L 1.84375 -2.890625 C 1.84375 -2.273438 2.015625 -1.796875 2.359375 -1.453125 C 2.703125 -1.109375 3.171875 -0.9375 3.765625 -0.9375 C 4.316406 -0.9375 4.726562 -1.078125 5 -1.359375 C 5.28125 -1.640625 5.421875 -2.023438 5.421875 -2.515625 Z M 5.421875 -2.515625 "/></g></g></g><g fill="#545454" fill-opacity="1"><g transform="translate(171.875049, 286.053058)"><g/></g></g><g fill="#545454" fill-opacity="1"><g transform="translate(176.073311, 286.053058)"><g><path d="M 0.703125 -2.671875 C 0.703125 -3.140625 0.8125 -3.570312 1.03125 -3.96875 C 1.257812 -4.375 1.695312 -4.835938 2.34375 -5.359375 C 1.96875 -5.890625 1.707031 -6.320312 1.5625 -6.65625 C 1.425781 -7 1.359375 -7.335938 1.359375 -7.671875 C 1.359375 -8.429688 1.550781 -9.023438 1.9375 -9.453125 C 2.332031 -9.878906 2.859375 -10.09375 3.515625 -10.09375 C 4.117188 -10.09375 4.613281 -9.890625 5 -9.484375 C 5.382812 -9.085938 5.578125 -8.585938 5.578125 -7.984375 C 5.578125 -7.585938 5.5 -7.222656 5.34375 -6.890625 C 5.1875 -6.566406 4.914062 -6.234375 4.53125 -5.890625 L 3.828125 -5.28125 L 5.578125 -2.765625 C 5.785156 -3.304688 5.890625 -3.914062 5.890625 -4.59375 L 6.96875 -4.59375 C 6.96875 -3.445312 6.738281 -2.5 6.28125 -1.75 L 7.5 0 L 6.046875 0 L 5.53125 -0.734375 C 5.269531 -0.460938 4.957031 -0.25 4.59375 -0.09375 C 4.226562 0.0625 3.847656 0.140625 3.453125 0.140625 C 2.609375 0.140625 1.9375 -0.117188 1.4375 -0.640625 C 0.945312 -1.160156 0.703125 -1.835938 0.703125 -2.671875 Z M 3.453125 -0.890625 C 3.984375 -0.890625 4.472656 -1.140625 4.921875 -1.640625 L 2.9375 -4.53125 L 2.734375 -4.359375 C 2.179688 -3.828125 1.90625 -3.265625 1.90625 -2.671875 C 1.90625 -2.140625 2.039062 -1.707031 2.3125 -1.375 C 2.59375 -1.050781 2.972656 -0.890625 3.453125 -0.890625 Z M 2.5625 -7.71875 C 2.5625 -7.46875 2.625 -7.210938 2.75 -6.953125 C 2.875 -6.691406 3.035156 -6.414062 3.234375 -6.125 L 3.75 -6.578125 C 4.03125 -6.796875 4.21875 -7.007812 4.3125 -7.21875 C 4.414062 -7.425781 4.46875 -7.679688 4.46875 -7.984375 C 4.46875 -8.285156 4.375 -8.535156 4.1875 -8.734375 C 4.007812 -8.941406 3.78125 -9.046875 3.5 -9.046875 C 3.207031 -9.046875 2.976562 -8.914062 2.8125 -8.65625 C 2.644531 -8.40625 2.5625 -8.09375 2.5625 -7.71875 Z M 2.5625 -7.71875 "/></g></g></g><g fill="#545454" fill-opacity="1"><g transform="translate(184.671457, 286.053058)"><g/></g></g><g fill="#545454" fill-opacity="1"><g transform="translate(188.869722, 286.053058)"><g><path d="M 6.890625 -8.875 L 4.265625 -8.875 L 4.265625 0 L 3.015625 0 L 3.015625 -8.875 L 0.40625 -8.875 L 0.40625 -9.953125 L 6.890625 -9.953125 Z M 6.890625 -8.875 "/></g></g></g><g fill="#545454" fill-opacity="1"><g transform="translate(197.146764, 286.053058)"><g><path d="M 4.078125 -4.03125 L 2.328125 -4.03125 L 2.328125 0 L 1.078125 0 L 1.078125 -9.953125 L 3.859375 -9.953125 C 4.835938 -9.953125 5.578125 -9.695312 6.078125 -9.1875 C 6.578125 -8.675781 6.828125 -7.929688 6.828125 -6.953125 C 6.828125 -6.335938 6.691406 -5.800781 6.421875 -5.34375 C 6.148438 -4.882812 5.765625 -4.539062 5.265625 -4.3125 L 7.203125 -0.078125 L 7.203125 0 L 5.859375 0 Z M 2.328125 -5.09375 L 3.84375 -5.09375 C 4.375 -5.09375 4.796875 -5.257812 5.109375 -5.59375 C 5.421875 -5.9375 5.578125 -6.390625 5.578125 -6.953125 C 5.578125 -8.234375 4.992188 -8.875 3.828125 -8.875 L 2.328125 -8.875 Z M 2.328125 -5.09375 "/></g></g></g><g fill="#545454" fill-opacity="1"><g transform="translate(205.56728, 286.053058)"><g><path d="M 5.71875 -2.59375 L 2.359375 -2.59375 L 1.578125 0 L 0.296875 0 L 3.5 -9.953125 L 4.578125 -9.953125 L 7.78125 0 L 6.5 0 Z M 2.6875 -3.671875 L 5.390625 -3.671875 L 4.03125 -8.203125 Z M 2.6875 -3.671875 "/></g></g></g><g fill="#545454" fill-opacity="1"><g transform="translate(214.623184, 286.053058)"><g><path d="M 3.921875 -1.921875 L 6.1875 -9.953125 L 7.5625 -9.953125 L 4.46875 0 L 3.375 0 L 0.28125 -9.953125 L 1.65625 -9.953125 Z M 3.921875 -1.921875 "/></g></g></g><g fill="#545454" fill-opacity="1"><g transform="translate(223.453628, 286.053058)"><g><path d="M 5.84375 -4.59375 L 2.328125 -4.59375 L 2.328125 -1.078125 L 6.421875 -1.078125 L 6.421875 0 L 1.078125 0 L 1.078125 -9.953125 L 6.359375 -9.953125 L 6.359375 -8.875 L 2.328125 -8.875 L 2.328125 -5.671875 L 5.84375 -5.671875 Z M 5.84375 -4.59375 "/></g></g></g><g fill="#545454" fill-opacity="1"><g transform="translate(231.395896, 286.053058)"><g><path d="M 2.328125 -1.078125 L 6.234375 -1.078125 L 6.234375 0 L 1.078125 0 L 1.078125 -9.953125 L 2.328125 -9.953125 Z M 2.328125 -1.078125 "/></g></g></g><g fill="#545454" fill-opacity="1"><g transform="translate(239.03755, 286.053058)"><g><path d="M 5.421875 -2.515625 C 5.421875 -3.015625 5.285156 -3.394531 5.015625 -3.65625 C 4.742188 -3.914062 4.257812 -4.171875 3.5625 -4.421875 C 2.863281 -4.679688 2.328125 -4.945312 1.953125 -5.21875 C 1.578125 -5.5 1.296875 -5.8125 1.109375 -6.15625 C 0.929688 -6.507812 0.84375 -6.914062 0.84375 -7.375 C 0.84375 -8.164062 1.101562 -8.816406 1.625 -9.328125 C 2.15625 -9.835938 2.847656 -10.09375 3.703125 -10.09375 C 4.285156 -10.09375 4.800781 -9.957031 5.25 -9.6875 C 5.707031 -9.425781 6.054688 -9.0625 6.296875 -8.59375 C 6.546875 -8.132812 6.671875 -7.628906 6.671875 -7.078125 L 5.421875 -7.078125 C 5.421875 -7.691406 5.269531 -8.164062 4.96875 -8.5 C 4.675781 -8.84375 4.253906 -9.015625 3.703125 -9.015625 C 3.191406 -9.015625 2.796875 -8.867188 2.515625 -8.578125 C 2.242188 -8.296875 2.109375 -7.898438 2.109375 -7.390625 C 2.109375 -6.972656 2.257812 -6.625 2.5625 -6.34375 C 2.863281 -6.0625 3.328125 -5.804688 3.953125 -5.578125 C 4.929688 -5.253906 5.628906 -4.851562 6.046875 -4.375 C 6.472656 -3.90625 6.6875 -3.289062 6.6875 -2.53125 C 6.6875 -1.71875 6.421875 -1.066406 5.890625 -0.578125 C 5.367188 -0.0976562 4.660156 0.140625 3.765625 0.140625 C 3.179688 0.140625 2.644531 0.015625 2.15625 -0.234375 C 1.664062 -0.492188 1.28125 -0.851562 1 -1.3125 C 0.71875 -1.769531 0.578125 -2.296875 0.578125 -2.890625 L 1.84375 -2.890625 C 1.84375 -2.273438 2.015625 -1.796875 2.359375 -1.453125 C 2.703125 -1.109375 3.171875 -0.9375 3.765625 -0.9375 C 4.316406 -0.9375 4.726562 -1.078125 5 -1.359375 C 5.28125 -1.640625 5.421875 -2.023438 5.421875 -2.515625 Z M 5.421875 -2.515625 "/></g></g></g></svg>